<?xml version="1.0" encoding="UTF-8"?>
<svg id="Camada_2" data-name="Camada 2" xmlns="http://www.w3.org/2000/svg" viewBox="0 0 40.7 44.88">
  <defs>
    <style>
      .cls-1 {
        fill: #fff;
      }
    </style>
  </defs>
  <g id="Camada_1-2" data-name="Camada 1">
    <g>
      <g>
        <path class="cls-1" d="M17.31,16.39c0,1.45-1.18,2.62-2.63,2.62s-2.63-1.17-2.63-2.62,1.18-2.62,2.63-2.62,2.63,1.17,2.63,2.62"/>
        <path class="cls-1" d="M25.19,16.39c0,1.45-1.18,2.62-2.63,2.62s-2.63-1.17-2.63-2.62,1.18-2.62,2.63-2.62,2.63,1.17,2.63,2.62"/>
        <path class="cls-1" d="M37,21.47l-3.09-4.04c-.3-.39-.79-.4-1.1,0l-3.13,4.05c-.3.39-.14.71.35.71h1.38c-2,5.3-7.27,8.89-13.1,8.62-6.62-.3-12.07-5.49-12.68-12.05-.09-.98-.96-1.71-1.95-1.61-.98.09-1.71.96-1.62,1.94.37,4.02,2.19,7.79,5.12,10.6,2.96,2.84,6.85,4.51,10.96,4.7,4.1.19,8.13-1.12,11.34-3.67,2.75-2.2,4.74-5.05,5.7-8.39l-.03.13h.03s1.46-.13,1.46-.13c.5,0,.66-.45.36-.84"/>
        <path class="cls-1" d="M35.53,13.74C34.04,6.18,27.53.51,19.7.03,12.14-.43,4.72,4.38,1.94,10.62H.51c-.5,0-.66.42-.36.81l3.18,4.1c.31.39.81.42,1.11.02l3.14-4.13c.31-.39.14-.8-.36-.8h-1.23c2.52-4.27,7.89-7.36,13.47-7.02,6.17.38,11.31,4.83,12.48,10.79.19.97,1.15,1.62,2.13,1.43.99-.19,1.63-1.11,1.44-2.08"/>
      </g>
      <path class="cls-1" d="M3.94,42.26c-.06-.93-.59-1.79-1.65-1.79-.91,0-1.62.77-1.7,1.79h3.35ZM2.37,44.88c-1.21,0-2.26-.97-2.26-2.4v-.02c0-1.34.94-2.4,2.18-2.4s2.11,1.06,2.11,2.38c0,.11-.11.21-.22.21H.59c.08,1.15.9,1.81,1.8,1.81.66,0,1.12-.27,1.49-.63.04-.03.08-.06.14-.06.12,0,.22.09.22.21,0,.05-.02.1-.07.15-.45.45-.97.75-1.8.75"/>
      <path class="cls-1" d="M9.1,44.59c0,.13-.09.23-.22.23s-.23-.09-.23-.23v-.67c-.31.54-.82.97-1.66.97-1.16,0-1.84-.79-1.84-1.9v-2.63c0-.13.09-.22.22-.22s.23.09.23.22v2.55c0,.95.53,1.57,1.46,1.57s1.6-.69,1.6-1.64v-2.47c0-.13.09-.22.22-.22s.23.09.23.22v4.22Z"/>
      <path class="cls-1" d="M10.11,40.57c0-.38.31-.69.69-.69s.68.31.68.69v.22c.2-.47.52-.9.93-.9s.67.28.67.67c0,.36-.24.58-.51.64-.69.16-1.08.7-1.08,1.67v1.28c0,.38-.31.69-.68.69s-.69-.31-.69-.69v-3.57Z"/>
      <path class="cls-1" d="M16.47,41.98c-.08-.61-.44-1.03-1.02-1.03s-.94.41-1.05,1.03h2.07ZM15.58,44.88c-1.45,0-2.53-1.02-2.53-2.5v-.02c0-1.38.98-2.52,2.39-2.52,1.61,0,2.33,1.33,2.33,2.33,0,.4-.28.66-.64.66h-2.72c.13.62.57.95,1.18.95.38,0,.7-.12.97-.32.1-.07.19-.11.33-.11.31,0,.53.23.53.54,0,.18-.08.32-.18.41-.42.36-.97.59-1.68.59"/>
      <path class="cls-1" d="M18.14,42.39v-.02c0-1.38,1.06-2.52,2.54-2.52.73,0,1.24.2,1.65.54.09.07.22.23.22.47,0,.34-.28.61-.62.61-.18,0-.31-.07-.4-.13-.24-.19-.5-.31-.86-.31-.69,0-1.17.6-1.17,1.32v.02c0,.74.48,1.34,1.23,1.34.36,0,.64-.13.9-.33.07-.05.21-.13.37-.13.32,0,.58.26.58.59,0,.18-.08.33-.2.43-.41.37-.92.62-1.72.62-1.45,0-2.52-1.12-2.52-2.5"/>
      <path class="cls-1" d="M23.13,40.57c0-.38.31-.69.69-.69s.69.31.69.69v3.57c0,.38-.31.69-.69.69s-.69-.31-.69-.69v-3.57ZM23.05,38.79c0-.4.33-.64.77-.64s.77.24.77.64v.02c0,.4-.33.65-.77.65s-.77-.25-.77-.65v-.02Z"/>
      <path class="cls-1" d="M25.11,42.39v-.02c0-1.38,1.05-2.52,2.54-2.52.73,0,1.24.2,1.65.54.09.07.22.23.22.47,0,.34-.28.61-.62.61-.18,0-.31-.07-.4-.13-.24-.19-.5-.31-.86-.31-.69,0-1.17.6-1.17,1.32v.02c0,.74.48,1.34,1.23,1.34.36,0,.64-.13.9-.33.07-.05.21-.13.37-.13.33,0,.58.26.58.59,0,.18-.08.33-.2.43-.41.37-.92.62-1.72.62-1.45,0-2.52-1.12-2.52-2.5"/>
      <path class="cls-1" d="M30.11,38.82c0-.38.31-.69.68-.69s.69.31.69.69v5.32c0,.38-.31.69-.69.69s-.68-.31-.68-.69v-5.32Z"/>
      <path class="cls-1" d="M35.96,42.39v-.02c0-.71-.51-1.34-1.27-1.34s-1.25.6-1.25,1.32v.02c0,.71.51,1.34,1.27,1.34s1.25-.6,1.25-1.32M32.08,42.39v-.02c0-1.39,1.12-2.52,2.63-2.52s2.61,1.11,2.61,2.5v.02c0,1.39-1.12,2.52-2.63,2.52s-2.61-1.11-2.61-2.5"/>
      <path class="cls-1" d="M39.45,39.11v-.37h.3c.15,0,.24.07.24.18h0c0,.12-.1.19-.24.19h-.3ZM39.3,39.57s.03.08.08.08.08-.03.08-.08v-.33h.27s.29.37.29.37c.02.02.03.03.06.03.04,0,.08-.03.08-.07,0-.02,0-.04-.02-.06l-.25-.3c.16-.04.26-.14.26-.3h0c0-.09-.03-.16-.08-.21-.07-.07-.17-.11-.31-.11h-.39s-.08.03-.08.08v.9ZM39.69,40.07c-.52,0-.91-.41-.91-.92h0c0-.51.4-.93.92-.93s.91.41.91.92h0c0,.51-.4.93-.92.93M39.69,40.15c.57,0,1.01-.46,1.01-1.01h0c0-.55-.44-1.01-1.01-1.01s-1.01.46-1.01,1.01h0c0,.56.44,1.01,1.01,1.01"/>
    </g>
  </g>
</svg>