<?xml version="1.0" encoding="UTF-8"?>
<svg id="Camada_2" data-name="Camada 2" xmlns="http://www.w3.org/2000/svg" viewBox="0 0 47.87 47.94">
  <defs>
    <style>
      .cls-1 {
        fill: #fff;
      }
    </style>
  </defs>
  <g id="Camada_1-2" data-name="Camada 1">
    <g>
      <g>
        <path class="cls-1" d="M42.62,21.06c-.36-.95-1.11-1.81-2.02-2.42-2.62-1.67-6.62-1.79-9.32-.28-1.47.75-2.44,2.24-2.74,3.77-.55,2.52-.41,5.51,1.53,7.4,2.26,1.98,5.55,2.42,8.48,1.61.14-.03.58-.14.88-.3l.09-.04c.91-.38,1.77-.99,2.42-1.83,1.49-2.18,1.6-5.45.69-7.91ZM37.85,26.71c-.1.48-.42.97-.93,1.15-.81.35-1.9.26-2.64-.16-.63-.44-.71-1.17-.79-1.86-.06-1.37-.16-2.82.22-4.07.3-.77,1.13-.97,1.88-1.03.79,0,1.55.12,2.04.75.3.46.28,1.05.34,1.59-.02,1.13.08,2.48-.12,3.63Z"/>
        <path class="cls-1" d="M13.94,27.94c-.67-.04-1.41.02-2.06-.06l.02-6.96.04-.06,2-.02c.02-1.13.04-2.34-.02-3.37l-7.61-.02-1.25.02c-.02,1.05-.02,2.28,0,3.35.69.02,1.33,0,2,.06v6.74l-.02.28-2,.04c-.04,1.11-.04,2.18,0,3.27h8.9v-3.27Z"/>
        <path class="cls-1" d="M36.34,32.7c-.85,1.21-1.92,2.38-3.09,3.29-.04.06-.16.04-.2-.02-.51-.32-1.05-.57-1.54-.89.65-.77,1.27-1.55,1.76-2.4h-.63c-.5.74-1.03,1.51-1.69,2.16-.89-.36-1.7-.67-2.6-.91l-.1-.08c.14-.4.4-.78.48-1.17h-.54l-.54,1.07c-1.19-.26-2.5-.4-3.71-.48-.06-.18.02-.44-.06-.6h-.52c-.04.24.06.42-.06.62-1.25.06-2.46.2-3.63.44l-.55-1.05c-.2,0-.42-.04-.56.02l.5,1.17-.06.06c-.91.26-1.8.58-2.66.93l-.08-.04c-.57-.62-1.11-1.29-1.55-1.96-.1-.34-.5-.14-.73-.18.48.87,1.13,1.65,1.77,2.44-.54.32-1.09.67-1.66.93-1.21-.91-2.34-2.1-3.19-3.35-.24-.04-.4-.02-.65,0,1.45,2.26,3.71,4.24,6.08,5.41,0,0,0-.02.02-.02.02,0,.06.04.02.06,1.6.77,3.29,1.33,5.09,1.57,6.2.81,12.11-1.82,15.54-7.02-.18-.02-.44-.02-.65,0ZM27.92,34.49l.06-.04c.87.2,1.7.48,2.46.85-.65.73-1.47,1.37-2.24,1.9-.46.28-.93.58-1.41.81l-.87-.38.06-.14c.73-.97,1.37-1.96,1.94-3.02ZM23.95,33.89c1.15.02,2.3.14,3.37.4l.02.06c-.56,1.07-1.27,2.1-2.04,3.07-.34.04-.67-.1-1.01-.12l-.34-.04c-.04-1.17-.06-2.2,0-3.37ZM20.05,34.25c1.05-.2,2.14-.36,3.27-.36l.02,3.35c-.43.1-.89.1-1.29.2-.83-.98-1.51-2.03-2.1-3.12l.1-.08ZM16.8,35.32c.79-.38,1.61-.66,2.46-.87l.08.02c.58,1.09,1.31,2.12,2.04,3.15-.28.16-.63.26-.91.42-1.33-.65-2.6-1.57-3.67-2.66v-.06ZM19.41,38.71c-1.7-.44-3.27-1.19-4.72-2.22v-.06c.48-.3.97-.61,1.49-.83,1.15,1.13,2.34,1.99,3.63,2.8-.1.12-.26.24-.4.32ZM26.89,38.97c-2.14.46-4.52.48-6.66-.04-.04-.1.1-.12.16-.18,1.88-1.21,4.8-1.21,6.64.1.06.12-.1.08-.14.12ZM28.83,38.41l-.95.3c-.16-.08-.3-.2-.44-.32l.04-.06c1.29-.75,2.46-1.67,3.57-2.76.54.22,1.07.52,1.56.85-1.13.9-2.44,1.49-3.77,1.99Z"/>
        <path class="cls-1" d="M10.85,15.94c.48-.67,1.03-1.33,1.63-1.96.52-.5,1.01-.97,1.57-1.33.53.34,1.11.62,1.61.93-.63.77-1.27,1.55-1.74,2.38.14.06.4.04.61,0,.5-.73,1.05-1.47,1.7-2.12.87.32,1.71.65,2.6.89l.08.08-.5,1.15c.22.04.36.02.59,0,.18-.34.32-.71.52-1.05,1.17.26,2.4.4,3.65.44.16.14.04.44.1.62h.54c.06-.2-.02-.42.06-.59,1.17-.06,2.4-.18,3.54-.46l.1.02.54,1.03c.18,0,.42.04.57-.04l-.51-1.15.04-.04c.93-.24,1.8-.6,2.68-.95.63.65,1.21,1.43,1.74,2.18.22,0,.44.02.6-.04-.24-.43-.55-.87-.87-1.25-.26-.38-.54-.71-.89-1.07v-.1l1.41-.81.2-.08c1.23.93,2.32,2.06,3.19,3.31.24,0,.44.08.65-.02-2.71-4.04-7.17-6.65-11.99-7.02l-.02.04-.04-.04c-.54-.06-1.21-.08-1.8-.02-.22-.02-.48,0-.75.02-4.84.37-9.3,2.86-12.09,7.08.2-.02.44.06.65-.02ZM19.23,14.2l-.08.02c-.83-.22-1.64-.48-2.4-.81l.04-.12c1.11-1.05,2.28-1.92,3.57-2.6.3.12.61.22.91.36l-.06.15c-.77.95-1.37,1.98-1.98,3ZM23.24,14.73c-.56.08-1.07-.02-1.64-.06-.54-.08-1.23-.14-1.77-.32.59-1.09,1.27-2.14,2.1-3.11l1.29.18c.06,1.03.02,2.22.02,3.31ZM23.87,14.75c-.04-1.05-.02-2.22,0-3.31.4-.06.85-.12,1.25-.18.79.99,1.56,2,2.08,3.09-1.09.26-2.2.4-3.33.4ZM30.31,13.36c-.79.34-1.6.65-2.46.83-.63-1.05-1.31-2.1-2.08-3.12.28-.15.63-.27.93-.43,1.31.65,2.58,1.59,3.65,2.65l-.04.06ZM27.72,9.97c1.7.44,3.29,1.19,4.74,2.22l-.04.08-1.39.77h-.1c-1.07-1.07-2.32-2-3.59-2.74.04-.14.24-.24.38-.34ZM26.92,9.77v.04c-1.76,1.27-4.6,1.39-6.46.22-.1-.08-.3-.12-.32-.26,2.14-.49,4.66-.53,6.78,0ZM14.6,12.23c1.27-.93,2.68-1.63,4.18-2.1.06-.06.1-.12.18-.12v.04c.16.04.28-.14.42-.02.12.1.26.18.36.28-1.25.77-2.48,1.68-3.61,2.79-.54-.2-1.05-.49-1.53-.83v-.04Z"/>
        <path class="cls-1" d="M23.26,28.1c-1.9.52-3.96.12-5.33-1.31-.16-.2-.26-.43-.42-.63l-2.72.02c-.04,1.61-.06,3.45,0,5.04l3.03-.02.04-.95c.34.16.69.36,1.03.53,2.1.87,4.8,1.07,6.88,0,1.51-.83,2.32-2.44,2.1-4.17-.22-1.68-1.84-3.21-3.47-3.63l-4.88-1.41-.36-.18c-.16-.14-.26-.31-.22-.53.38-.65,1.27-.46,1.94-.44,1.41.2,2.87.67,3.69,1.96.89,0,1.92.02,2.89-.02.04-1.63-.02-3.05-.04-4.7-.91-.02-2.02-.02-2.93.02-.04.24.04.57-.06.81l-.93-.5c-2.22-.93-5.33-1.03-7.35.42-1.31.95-1.71,2.66-1.37,4.16.26,1.43,1.63,2.48,2.95,2.97,1.8.63,3.67,1.09,5.49,1.71.18.08.42.26.38.48,0,.18-.18.28-.32.35Z"/>
      </g>
      <g>
        <path class="cls-1" d="M4.18,32.67l.1.23s0,.09-.05.11l-2.91,1.26s-.09,0-.11-.04l-.1-.23s0-.09.05-.11l2.91-1.26s.09,0,.11.04Z"/>
        <path class="cls-1" d="M3.32,30.32l.07.2s0,.1-.06.11l-1.41.47c-.43.15-.51.34-.4.66.06.18.2.36.36.52l1.8-.61s.1,0,.11.06l.07.21s-.01.09-.06.11l-2.18.74s-.1,0-.11-.05l-.07-.21s.01-.09.06-.11l.08-.03c-.21-.19-.34-.36-.43-.61-.17-.51.07-.85.64-1.04l1.41-.47s.1,0,.11.06Z"/>
        <path class="cls-1" d="M2.92,28.64c.03.08.07.2.09.28.09.4.04.62-.44.74l-1.53.36.05.44s-.01.09-.06.1l-.12.03s-.09-.02-.1-.06l-.1-.43-.43.1s-.09-.01-.11-.06l-.09-.22s0,0,0-.01c0-.04.02-.07.06-.08l.48-.11-.11-.47s.02-.1.07-.11l.15-.04s.1.02.11.07l.11.47,1.53-.37c.24-.06.26-.13.22-.3l-.06-.24c-.01-.06,0-.1.04-.11l.15-.04s.07,0,.09.06Z"/>
        <path class="cls-1" d="M1.48,26.61l.21,1.49h.06c.53-.08.7-.32.64-.73-.04-.26-.1-.59-.16-.79,0,0,0-.01,0-.02,0-.04,0-.07.05-.08l.15-.02c.06,0,.09,0,.11.07.08.25.15.49.19.79.07.51-.1,1.05-.93,1.16l-.4.05c-.64.09-1.09-.21-1.18-.85-.09-.65.27-1.04.91-1.13l.24-.03c.06,0,.1.02.11.07ZM1.19,26.97c-.5.07-.67.29-.62.68.05.38.3.57.78.5h.04s-.16-1.19-.16-1.19h-.04Z"/>
        <path class="cls-1" d="M.34,25.06c.01.21.07.39.22.61l1.88-.1s.09.04.09.09v.22s-.02.09-.07.09l-2.29.12s-.09-.03-.09-.08v-.21s.02-.09.07-.09h.09c-.17-.22-.24-.43-.25-.63,0-.06.02-.09.08-.1h.18s.08.02.08.08Z"/>
        <path class="cls-1" d="M2.55,22.71v.22s-.05.09-.1.09l-1.48-.06c-.45-.02-.6.13-.61.47,0,.19.05.4.15.61l1.89.08s.09.04.09.09v.22s-.05.08-.1.08l-2.29-.09s-.09-.04-.09-.09v-.22s.05-.08.1-.08h.08c-.13-.25-.19-.45-.18-.72.02-.54.37-.77.96-.74l1.48.06c.05,0,.09.04.09.09Z"/>
        <path class="cls-1" d="M2.85,20.51l-.03.21s-.05.08-.1.08h-.1c.09.22.15.45.12.7-.06.38-.27.7-.83.62h-.05c-.48-.08-.68-.4-.56-1.19l.05-.33-.18-.03c-.37-.05-.52.05-.57.4-.04.29-.06.51-.06.69,0,0,0,.01,0,.02,0,.04-.03.08-.08.07l-.16-.02s-.07-.04-.07-.11c0-.19,0-.4.04-.7.09-.62.44-.82.96-.74l1.55.23s.08.05.08.1ZM1.62,20.64l-.05.33c-.08.54.02.7.34.75h.05c.32.05.43-.08.47-.34.03-.21,0-.4-.09-.63l-.72-.11Z"/>
        <path class="cls-1" d="M3.24,18.85c0,.09-.03.21-.05.29-.1.4-.25.57-.73.46l-1.53-.36-.15.41s-.05.08-.1.06l-.12-.03s-.07-.05-.06-.1l.1-.43-.43-.1s-.07-.05-.07-.1l.02-.24s0,0,0-.01c0-.04.05-.06.09-.05l.48.11.11-.47s.06-.08.11-.07l.15.04s.08.06.07.11l-.11.47,1.53.37c.24.06.29,0,.33-.17l.06-.24c.01-.06.04-.09.08-.08l.15.04s.06.04.06.1Z"/>
        <path class="cls-1" d="M.72,17.27l-.07.22s-.06.07-.11.06l-.34-.11s-.07-.06-.06-.11l.07-.22s.06-.07.11-.06l.34.11s.07.06.06.11ZM3.46,18.12l-.06.21s-.07.07-.11.06l-2.19-.67s-.07-.06-.06-.11l.06-.21s.06-.07.11-.06l2.19.67s.08.06.06.11Z"/>
        <path class="cls-1" d="M4.01,16.66c-.24.61-.77.76-1.39.52l-.32-.12c-.61-.24-.89-.72-.65-1.33.24-.61.77-.77,1.39-.53l.32.13c.61.24.89.72.65,1.34ZM2.9,15.56c-.43-.17-.76-.11-.92.28-.15.39.04.67.47.84l.32.12c.43.17.76.11.92-.28.15-.39-.04-.67-.47-.84l-.32-.13Z"/>
        <path class="cls-1" d="M5.39,13.74l-.1.19s-.08.06-.12.04l-1.31-.7c-.4-.22-.6-.15-.76.15-.09.17-.13.39-.13.62l1.67.9s.06.08.04.12l-.11.19s-.08.06-.12.03l-2.02-1.09s-.06-.07-.04-.12l.11-.2s.08-.06.12-.03l.08.04c0-.28.03-.5.16-.73.25-.48.67-.53,1.19-.25l1.31.7s.06.08.04.12Z"/>
        <path class="cls-1" d="M6.6,11.91l-.12.17s-.08.05-.12.02l-.08-.05c-.02.25-.07.49-.21.69-.22.32-.55.51-1.02.19l-.04-.03c-.4-.27-.44-.64.01-1.31l.19-.27-.15-.1c-.31-.21-.49-.18-.69.11-.17.24-.27.43-.36.59,0,0,0,.01-.01.02-.02.03-.06.06-.11.03l-.13-.09s-.05-.07-.02-.13c.08-.17.17-.35.35-.61.35-.51.75-.54,1.19-.24l1.29.89s.05.08.02.12ZM5.44,11.49l-.19.27c-.31.45-.29.64-.02.82l.04.03c.27.18.42.11.57-.11.12-.17.17-.36.19-.6l-.6-.41Z"/>
        <path class="cls-1" d="M7.2,11.16l-.15.18s-.08.04-.12,0l-2.51-2.01s-.05-.08-.02-.12l.15-.18s.08-.04.12-.01l2.51,2.01s.05.08.02.12Z"/>
        <path class="cls-1" d="M9.17,9.1c-.51.48-1.17.53-1.85-.2l-.4-.42c-.68-.73-.59-1.38-.08-1.86.52-.48,1.17-.53,1.85.2l.4.42c.68.73.59,1.38.08,1.86ZM8.39,7.1c-.52-.55-.94-.55-1.3-.21-.36.34-.39.76.13,1.31l.4.42c.52.55.94.55,1.3.21.36-.33.39-.76-.13-1.31l-.4-.42Z"/>
        <path class="cls-1" d="M9.9,5.64c-.17.13-.28.28-.38.53l1.14,1.5s.02.1-.02.13l-.18.13s-.09.02-.12-.02l-1.39-1.82s-.03-.09.01-.12l.17-.13s.09-.02.12.02l.06.07c.08-.26.21-.43.37-.56.05-.04.09-.04.12,0l.11.15s.02.08-.03.12Z"/>
        <path class="cls-1" d="M11.94,4.28l-.12.11c.11.03.25.1.38.31l.02.03c.27.42.15.81-.43,1.18-.2.13-.35.18-.49.2-.04.07-.05.13-.01.19.04.06.09.08.2.05l.66-.21c.43-.14.86-.26,1.08.09l.02.03c.23.36.13.74-.49,1.14-.6.38-1.02.33-1.25-.05l-.02-.03c-.14-.21-.13-.46-.07-.63h-.04c-.15.03-.29-.06-.36-.18h0c-.07-.11-.09-.25-.02-.38-.19-.03-.33-.13-.46-.33l-.02-.03c-.21-.34-.24-.79.41-1.21l.83-.53s.11-.02.14.03l.06.1s.02.08-.02.12ZM11.87,4.91c-.14-.23-.36-.34-.77-.08-.43.27-.39.52-.25.73l.02.03c.11.17.32.34.76.06.41-.26.41-.48.27-.71l-.02-.03ZM12.89,6.45c-.09-.15-.25-.13-.65,0l-.5.16c-.05.17-.06.31.06.5l.02.04c.14.21.34.26.77,0,.43-.28.45-.46.32-.67l-.02-.03Z"/>
        <path class="cls-1" d="M14.94,5.19l-.19.09s-.1,0-.12-.04l-.04-.09c-.14.21-.3.39-.53.5-.34.17-.73.17-.98-.33l-.02-.05c-.21-.44-.07-.78.65-1.13l.3-.15-.08-.16c-.17-.34-.34-.4-.66-.24-.26.13-.45.24-.6.34,0,0-.01,0-.02.01-.04.02-.08.02-.1-.03l-.07-.14s0-.08.05-.12c.15-.11.32-.23.6-.36.56-.28.93-.11,1.16.37l.69,1.41s0,.1-.04.12ZM14.14,4.25l-.3.15c-.49.24-.56.41-.42.7l.02.05c.14.29.32.3.55.18.19-.09.32-.23.47-.43l-.32-.65Z"/>
        <path class="cls-1" d="M17.18,4.34l-.2.07s-.1,0-.11-.05l-.51-1.39c-.15-.43-.35-.51-.67-.39-.18.06-.35.21-.51.37l.65,1.79s0,.1-.05.11l-.21.08s-.09,0-.11-.05l-.79-2.16s0-.1.05-.11l.21-.08s.09,0,.11.05l.03.08c.18-.22.35-.35.6-.44.51-.18.85.05,1.06.61l.51,1.39s0,.1-.05.12Z"/>
        <path class="cls-1" d="M17.36,1.31l-.22.06s-.1-.02-.11-.06l-.1-.35s.02-.1.06-.11l.22-.06s.1.02.11.06l.09.35s-.02.1-.06.11ZM18.11,4.08l-.21.06s-.1-.02-.11-.06l-.6-2.21s.01-.1.06-.11l.21-.06s.1.02.11.06l.6,2.21s-.01.1-.06.11Z"/>
        <path class="cls-1" d="M20.25,3.61l-1.34.26c-.19.04-.29-.07-.32-.19l-.02-.08c-.02-.12-.01-.19.05-.31l.86-1.64s.01-.03.01-.04c0-.02-.02-.03-.05-.02l-1.07.21s-.1-.02-.11-.07l-.03-.15s.02-.09.07-.11l1.3-.25c.18-.04.26.04.29.17l.02.11c.02.09,0,.17-.05.26l-.88,1.68s-.02.04-.01.05c0,.02.01.03.04.03l1.17-.23s.1.02.11.07l.03.15s-.02.1-.07.11Z"/>
        <path class="cls-1" d="M22.36,3.39l-.21.02s-.09-.03-.1-.08v-.1c-.21.15-.43.26-.68.28-.38.04-.74-.1-.8-.66v-.05c-.05-.48.21-.75,1.01-.82l.33-.03-.02-.18c-.04-.38-.18-.49-.53-.46-.29.03-.5.07-.68.1,0,0-.01,0-.02,0-.04,0-.08,0-.09-.06v-.16s0-.08.07-.09c.18-.05.38-.09.69-.12.62-.06.9.23.95.76l.14,1.56s-.03.09-.08.1ZM21.94,2.23l-.33.03c-.54.05-.67.18-.64.5v.05c.04.32.2.39.45.37.21-.02.38-.1.59-.24l-.07-.72Z"/>
        <path class="cls-1" d="M24.08,3.37c-.09.01-.21.03-.29.03-.41,0-.61-.1-.62-.59l-.02-1.57-.44-.04s-.09-.03-.09-.08v-.12s.03-.08.08-.08h.44s0-.45,0-.45c0-.04.03-.08.08-.09l.23-.04h.01s.07.03.07.08v.49s.49,0,.49,0c.05,0,.09.04.09.09v.15s-.04.09-.09.09h-.49s.02,1.58.02,1.58c0,.25.07.28.25.28h.25c.06,0,.09.01.1.06v.16s-.02.07-.08.08Z"/>
        <path class="cls-1" d="M24.87,3.42h-.22s-.09-.06-.08-.11l.13-2.29s.05-.09.09-.08h.22s.09.06.08.11l-.13,2.29c0,.05-.05.09-.1.09ZM25.04.55h-.23s-.09-.06-.08-.11l.02-.36s.05-.09.09-.08h.23s.09.06.08.11l-.02.36s-.05.09-.09.08Z"/>
        <path class="cls-1" d="M26.42,3.6c-.66-.09-.93-.57-.84-1.22l.05-.34c.09-.66.48-1.04,1.14-.95.66.09.94.57.85,1.22l-.05.34c-.09.66-.49,1.04-1.14.95ZM27.21,2.25c.06-.46-.08-.77-.5-.83-.41-.05-.64.21-.7.66l-.05.34c-.06.46.08.77.5.83.41.05.64-.21.7-.66l.05-.34Z"/>
        <path class="cls-1" d="M29.57,4.23l-.21-.05s-.08-.06-.06-.11l.37-1.44c.11-.44,0-.61-.33-.7-.18-.05-.41-.03-.63.02l-.47,1.84s-.06.08-.11.06l-.21-.05s-.07-.06-.06-.11l.57-2.23s.06-.08.11-.07l.22.06s.07.06.06.11l-.02.08c.27-.07.49-.09.74-.02.52.13.68.52.53,1.1l-.37,1.44s-.06.08-.11.06Z"/>
        <path class="cls-1" d="M33.38,2.34l-.2-.08c-.19-.08-.28-.05-.37.18l-.12.3.44.18s.07.07.05.11l-.07.16s-.06.06-.11.04l-.44-.18-.78,1.9s-.07.07-.11.05l-.2-.08s-.06-.08-.05-.12l.78-1.9-.38-.21s-.06-.06-.05-.11l.05-.11s.06-.06.11-.04l.4.17.12-.3c.18-.45.45-.49.82-.34.11.05.17.09.22.12.04.03.07.06.05.1l-.06.14s-.05.05-.1.03Z"/>
        <path class="cls-1" d="M33.27,5.79c-.59-.31-.68-.85-.37-1.44l.16-.3c.31-.59.81-.82,1.39-.51.59.31.69.85.38,1.44l-.16.3c-.31.59-.81.81-1.4.51ZM34.48,4.8c.21-.41.18-.75-.19-.95-.37-.19-.67-.02-.88.38l-.16.3c-.21.41-.19.75.19.94.37.2.67.03.89-.38l.16-.3Z"/>
        <path class="cls-1" d="M36.56,5.2c-.17-.11-.36-.17-.62-.18l-1.02,1.58s-.08.05-.12.03l-.19-.12s-.05-.08-.02-.12l1.24-1.92s.08-.06.12-.03l.18.11s.05.08.02.12l-.05.08c.27-.01.48.05.65.16.05.03.06.07.04.12l-.1.15s-.07.05-.12.01Z"/>
        <path class="cls-1" d="M37.17,8.42c-.24-.21-.39-.38-.52-.54-.05-.06-.04-.08-.01-.12l.12-.14s.07-.03.11,0c0,0,0,0,.01,0,.14.15.39.37.54.51.41.35.66.28.86.04.15-.17.13-.35-.01-.81l-.16-.48c-.15-.46-.15-.77.08-1.04.35-.41.82-.35,1.33.1.2.17.44.42.56.55.03.04.04.07,0,.11l-.13.15s-.07.03-.1,0t0,0c-.14-.14-.37-.35-.57-.53-.35-.3-.57-.36-.78-.11-.14.16-.11.35.02.73l.15.46c.19.57.17.88-.06,1.15-.28.33-.76.53-1.43-.04Z"/>
        <path class="cls-1" d="M39.06,10.2c-.07-.05-.16-.13-.22-.19-.29-.3-.35-.51,0-.86l1.12-1.1-.27-.35s-.04-.08,0-.12l.09-.08s.08-.03.12,0l.31.31.31-.31s.08-.04.12,0l.19.14s0,0,0,0c.02.03.02.07,0,.1l-.35.34.34.35s.03.09,0,.13l-.11.11s-.09.03-.13,0l-.34-.35-1.12,1.1c-.18.17-.16.24-.03.37l.18.18s.05.08.02.11l-.11.11s-.06.03-.11,0Z"/>
        <path class="cls-1" d="M40.37,11.75l-.13-.16s-.03-.09.01-.13l.08-.06c-.23-.09-.45-.2-.61-.4-.24-.3-.34-.67.1-1.03l.04-.04c.38-.31.75-.24,1.25.38l.21.26.14-.11c.29-.24.31-.42.09-.69-.18-.23-.34-.38-.46-.51,0,0,0-.01-.01-.02-.02-.03-.04-.07,0-.11l.12-.1s.08-.02.13.02c.14.12.29.27.49.5.39.48.31.88-.1,1.21l-1.22.99s-.1.02-.13-.01ZM41.1,10.76l-.21-.26c-.34-.42-.53-.46-.77-.26l-.04.04c-.25.2-.22.38-.06.58.13.16.3.26.52.36l.56-.46Z"/>
        <path class="cls-1" d="M41.68,13.71l-.12-.18s-.02-.1.03-.12l1.24-.8c.38-.25.41-.45.23-.74-.1-.16-.28-.3-.48-.41l-1.59,1.03s-.1.02-.13-.03l-.12-.18s-.01-.09.03-.12l1.92-1.25s.1-.02.12.02l.12.19s.01.09-.03.12l-.07.05c.25.13.42.27.56.49.29.45.14.84-.36,1.16l-1.24.8s-.1.01-.12-.03Z"/>
        <path class="cls-1" d="M42.79,15.74c-.17-.22-.31-.46-.44-.71-.3-.6-.05-1.07.56-1.37l.29-.14c.63-.31,1.13-.2,1.42.39.06.12.15.32.2.49l.75-.37s.09,0,.11.04l.1.21s0,.09-.04.11l-2.81,1.4c-.05.03-.09.03-.14-.04ZM44.51,14.55c-.04-.15-.14-.36-.21-.48-.2-.4-.51-.4-.94-.19l-.29.14c-.44.22-.62.47-.42.86.07.14.18.33.26.46l1.6-.79Z"/>
        <path class="cls-1" d="M43.56,17.84l-.07-.19s0-.1.05-.12l.09-.04c-.19-.16-.36-.34-.45-.57-.13-.36-.1-.75.43-.94l.05-.02c.45-.17.78.01,1.06.76l.12.31.17-.06c.35-.13.43-.3.31-.63-.1-.27-.19-.47-.27-.63,0,0,0-.01,0-.02-.01-.04-.01-.08.04-.1l.15-.05s.08,0,.11.06c.09.16.19.35.3.63.22.59.01.93-.49,1.12l-1.47.55s-.1,0-.12-.05ZM44.57,17.14l-.12-.31c-.19-.51-.35-.6-.65-.49l-.05.02c-.3.11-.33.29-.24.53.07.19.19.34.38.51l.68-.25Z"/>
        <path class="cls-1" d="M46.07,18.8c-.06-.2-.16-.37-.35-.55l-1.82.5s-.1-.02-.11-.06l-.06-.21s.02-.09.06-.11l2.21-.61s.1.01.11.06l.06.2s-.02.09-.06.11l-.09.02c.21.18.32.36.38.55.02.06,0,.1-.05.11l-.18.05s-.08,0-.1-.07Z"/>
        <path class="cls-1" d="M44.43,21.35c-.1-.26-.18-.53-.23-.8-.12-.66.25-1.04.91-1.17l.32-.06c.69-.13,1.14.12,1.26.76.03.14.05.35.05.53l.82-.15s.09.02.1.07l.04.22s-.02.09-.07.09l-3.09.58c-.06.01-.09,0-.12-.07ZM46.42,20.68c0-.15-.04-.38-.07-.52-.08-.43-.38-.53-.85-.44l-.32.06c-.48.09-.73.28-.64.72.03.15.08.37.12.51l1.76-.33Z"/>
        <path class="cls-1" d="M44.48,22.3l-.02-.22s.03-.09.08-.1l2.28-.24s.09.03.1.08l.02.22s-.03.09-.08.1l-2.28.24s-.09-.03-.1-.08ZM47.34,22.01l-.02-.23s.03-.09.08-.1l.36-.04s.09.03.1.08l.02.23s-.03.09-.08.1l-.36.04s-.09-.03-.1-.08Z"/>
        <path class="cls-1" d="M44.6,24.51l-.04-1.36c0-.2.11-.28.24-.28h.09c.12,0,.19.02.3.09l1.48,1.12s.03.02.04.02c.02,0,.03-.01.03-.05l-.03-1.09s.04-.09.09-.09h.15s.09.03.09.08l.04,1.32c0,.18-.08.25-.21.26h-.11c-.09,0-.16-.02-.25-.09l-1.52-1.14s-.04-.02-.05-.02c-.02,0-.04,0-.04.04l.04,1.19s-.04.09-.09.09h-.15s-.09-.03-.09-.08Z"/>
        <path class="cls-1" d="M44.48,26.65l.02-.21s.05-.09.1-.08h.1c-.11-.22-.19-.45-.17-.7.03-.38.22-.72.78-.68h.05c.49.04.71.34.65,1.14l-.02.33h.18c.38.04.52-.08.54-.43.02-.29.02-.51.01-.69,0,0,0-.01,0-.02,0-.04.02-.08.08-.08h.16s.07.05.08.11c.02.19.03.39.01.7-.04.62-.38.85-.91.82l-1.57-.11s-.09-.05-.08-.1ZM45.69,26.43l.02-.33c.04-.54-.07-.7-.39-.72h-.05c-.32-.03-.42.12-.44.38-.01.21.04.4.14.62l.72.05Z"/>
        <path class="cls-1" d="M44.22,28.35c0-.09.01-.21.02-.29.06-.41.2-.59.69-.51l1.55.24.12-.42s.04-.08.09-.07l.12.02s.08.05.07.1l-.07.43.44.07s.08.04.08.09v.24s0,0,0,.01c0,.04-.04.06-.09.05l-.48-.08-.08.48s-.05.08-.1.08l-.15-.02s-.08-.05-.08-.1l.08-.48-1.55-.24c-.24-.04-.29.02-.32.2l-.04.25c-.01.06-.03.09-.08.08l-.16-.02s-.06-.03-.06-.09Z"/>
        <path class="cls-1" d="M44.06,29.11l.05-.21s.06-.08.11-.07l2.24.5s.08.06.07.11l-.05.21s-.06.08-.11.07l-2.24-.5s-.08-.06-.07-.11ZM46.86,29.74l.05-.22s.06-.08.11-.07l.35.08s.08.06.07.11l-.05.22s-.06.08-.11.07l-.35-.08s-.08-.06-.07-.11Z"/>
        <path class="cls-1" d="M43.63,30.6c.19-.63.71-.83,1.34-.63l.33.1c.63.19.95.64.76,1.28-.19.63-.71.83-1.34.64l-.33-.1c-.63-.19-.95-.65-.75-1.28ZM44.83,31.6c.44.13.77.04.9-.36.12-.4-.1-.66-.54-.8l-.33-.1c-.44-.13-.77-.05-.89.36-.12.4.1.66.54.8l.33.1Z"/>
        <path class="cls-1" d="M42.5,33.59l.09-.2s.07-.07.12-.05l1.35.59c.42.18.6.1.74-.21.08-.17.09-.4.08-.63l-1.74-.76s-.06-.07-.05-.12l.09-.2s.07-.06.12-.04l2.1.92s.07.07.05.11l-.09.21s-.07.06-.12.04l-.08-.03c.03.28.01.49-.1.74-.21.49-.62.58-1.17.34l-1.35-.59s-.07-.07-.05-.12Z"/>
      </g>
      <g>
        <path class="cls-1" d="M18.48,47.94c-.52,0-.89-.06-1.13-.11-.09-.02-.13-.06-.13-.13v-.5c0-.08.04-.12.1-.12h.03c.28.05.71.08,1.05.08.5,0,.72-.2.72-.84v-.04c-.15.03-.44.07-.68.07-.77,0-1.42-.33-1.42-1.28v-.04c0-.87.53-1.46,1.51-1.46.92,0,1.54.54,1.54,1.69v.88c0,1.3-.62,1.8-1.6,1.8ZM19.12,45.26c0-.78-.25-.94-.58-.94s-.56.15-.56.71v.04c0,.47.28.6.61.6.15,0,.39-.04.52-.06v-.35Z"/>
        <path class="cls-1" d="M22.19,47.94c-.98,0-1.54-.56-1.54-1.93v-.49c0-1.38.57-1.94,1.54-1.94s1.55.56,1.55,1.94v.49c0,1.38-.57,1.93-1.55,1.93ZM22.75,45.52c0-.91-.25-1.12-.57-1.12s-.56.22-.56,1.12v.49c0,.91.24,1.12.56,1.12s.57-.21.57-1.12v-.49Z"/>
        <path class="cls-1" d="M25.83,47.94c-.98,0-1.54-.56-1.54-1.93v-.49c0-1.38.57-1.94,1.54-1.94s1.55.56,1.55,1.94v.49c0,1.38-.57,1.93-1.55,1.93ZM26.4,45.52c0-.91-.25-1.12-.57-1.12s-.56.22-.56,1.12v.49c0,.91.24,1.12.56,1.12s.57-.21.57-1.12v-.49Z"/>
        <path class="cls-1" d="M29.08,47.08v-2.47l-.75.32s-.05.02-.07.02c-.04,0-.06-.03-.06-.07v-.65s.02-.06.06-.08l1.04-.49s.07-.02.13-.02h.52c.06,0,.11.05.11.11v3.34h.76c.06,0,.12.05.12.11v.59c0,.06-.05.12-.12.12h-2.5c-.06,0-.12-.05-.12-.12v-.59c0-.06.05-.11.12-.11h.76Z"/>
      </g>
    </g>
  </g>
</svg>