<?xml version="1.0" encoding="UTF-8"?>
<svg id="Camada_2" data-name="Camada 2" xmlns="http://www.w3.org/2000/svg" viewBox="0 0 446.14 195.52">
  <defs>
    <style>
      .cls-1 {
        fill: #fff;
      }

      .cls-2 {
        fill: #0055b2;
      }

      .cls-3 {
        fill: #6ab407;
      }
    </style>
  </defs>
  <g id="Modelo_da_Logo_e_proporções" data-name="Modelo da Logo e proporções">
    <g>
      <path class="cls-2" d="M98.57,149.61c27.55-6.89,33.39-14.11,32.49-20.95-.99-7.53-11.08-14.57-39.8-28.37-8.76-4.21-17.83-9.71-24.47-14.6-11.47-8.44-17.37-16.87-16.74-26.91.93-14.69,15.03-25,34.35-31.66,18.62-6.42,40.32-7.96,46.9-8.29-10.23-4.29-21.46-6.66-33.23-6.66C50.7,12.16,12.16,50.56,12.16,97.76c0,20.69,7.4,39.68,19.71,54.49,6.44.69,40.54,3.89,66.7-2.65Z"/>
      <path class="cls-3" d="M181.89,78.91s-.02-.08-.03-.12c-.13-.57-.27-1.15-.41-1.72-.03-.1-.05-.2-.07-.3-.14-.57-.3-1.13-.45-1.7-.03-.09-.05-.19-.08-.28-.17-.6-.34-1.2-.52-1.79-.01-.05-.03-.09-.04-.14-3.95-12.93-10.9-24.57-20.03-34.12-2.05-1.23-5.99-2.87-12.59-3.12-17.02-.63-42.39,4.63-62.54,13.52-8.23,3.63-16.28,8.63-16.64,16.93-.23,5.4,5.55,11.45,14.55,16.76,5.65,3.33,13.33,6.35,19.19,8.84,19.43,8.25,47.87,20.38,47.44,37.69-.42,16.79-15.02,24.81-36.28,32.78-18.59,6.97-46.24,10.72-54.57,11.74,11.77,6.05,25.12,9.47,39.25,9.47,38.38,0,70.95-25.2,81.94-59.87h-9.66v-12.16h12.54s0-.03,0-.04h.08c.67-4.34,1.03-8.78,1.03-13.31,0-.19,0-.38,0-.57h-.02c-.03-6.35-.75-12.54-2.1-18.5Z"/>
      <path class="cls-1" d="M182.91,111.33h-12.54v12.16h9.66c-10.99,34.66-43.57,59.87-81.94,59.87-14.13,0-27.48-3.42-39.25-9.47,8.33-1.02,35.98-4.76,54.57-11.74,21.26-7.97,35.86-15.99,36.28-32.78.43-17.32-28.01-29.45-47.44-37.69-5.86-2.49-13.54-5.5-19.19-8.84-9-5.31-14.79-11.36-14.55-16.76.36-8.3,8.42-13.3,16.64-16.93,20.15-8.89,45.52-14.15,62.54-13.52,6.6.25,10.53,1.89,12.59,3.12,14.62,15.29,23.64,35.94,23.73,58.65h12.16C195.96,43.67,152.04,0,98.08,0S0,43.86,0,97.76s44,97.76,98.08,97.76c49.48,0,90.49-36.71,97.12-84.23h-12.29s0,.03,0,.04ZM12.16,97.76C12.16,50.56,50.7,12.16,98.08,12.16c11.78,0,23,2.37,33.23,6.66-6.58.33-28.27,1.87-46.9,8.29-19.32,6.67-33.43,16.97-34.35,31.66-.63,10.05,5.26,18.48,16.74,26.91,6.64,4.88,15.71,10.39,24.47,14.6,28.71,13.8,38.8,20.84,39.8,28.37.9,6.84-4.94,14.07-32.49,20.95-26.16,6.54-60.26,3.34-66.7,2.65-12.31-14.81-19.71-33.81-19.71-54.49Z"/>
      <g>
        <g>
          <path class="cls-1" d="M399.19,35.85l46.95.05v22.39s-46.96-.05-46.96-.05h-.01c-3.16,0-5.73,2.51-5.73,5.6,0,.15.03.95.03,1.1,0,2.9,2.97,5.97,5.84,5.98.03,0,.08,0,.12,0h18.12c16.23.01,28.58,11.1,28.57,26.55,0,15.45-12.82,27.98-28.61,27.96l-51.75-.1v-22.39s51.76.1,51.76.1h.01c3.16,0,5.73-2.51,5.73-5.6,0-.15-.01-.39-.03-.53-.35-2.79-2.97-5.05-5.84-5.06-.03,0-.09,0-.12,0l-18.12-.02c-15.78-.01-28.58-12.56-28.57-28.01,0-15.45,12.82-27.98,28.61-27.96Z"/>
          <path class="cls-1" d="M289.32,95.99c0-10.1,4.15-18.95,11.31-25.06h-40.19v18.02h21.83v14.04h-18.1c-12.93,0-22.33-9.06-22.33-22.27s9.14-22.45,22.33-22.45h43.1c.53-9.57,4.99-17.35,12.28-22.39h-55.38c-26.06,0-44.26,18.05-44.26,43.9s19.03,45.68,44.26,45.68h39.88c-9.26-6.19-14.74-16.54-14.74-29.45Z"/>
          <path class="cls-1" d="M359.42,96.58l14.4.03,4.56-5.22c-5.35-3.91-9.53-9.29-11.92-15.52h-4.38l-.51.55-5.12,5.49-6.7-7.12c-4.68-5.06-7.07-8.32-7.07-12.05,0-2.99,1.66-4.44,5.07-4.44h16.94c1.53-9.24,6.82-17.24,14.27-22.45h-36.84c-17.34,0-28.55,9.55-28.55,24.33,0,3.49.4,6.49,1.25,9.42l.16.56-.55.18c-11.58,3.86-18.77,13.68-18.77,25.64,0,17.89,12.21,29.45,31.11,29.45,9.57,0,19.21-2.92,27.16-8.21l.44-.29,5.03,5.45.02-25.8ZM334.36,99.74c-2,.9-4.95,1.97-7.66,1.97-5.36,0-6.48-2.9-6.48-5.33,0-2.97,2.84-5.2,6.61-5.2h.78l7.52,8.22-.76.34Z"/>
        </g>
        <g>
          <path class="cls-1" d="M235.75,151.57v-7.24h-6.65v7.24h-3.77v-17.12h3.77v6.5h6.65v-6.5h3.77v17.12h-3.77Z"/>
          <path class="cls-1" d="M251.33,151.96c-6.04,0-8.93-4.25-8.93-8.9s2.89-8.9,8.93-8.9,8.93,4.25,8.93,8.9-2.89,8.9-8.93,8.9ZM256.36,143.06c0-2.86-1.78-5.48-5.04-5.48s-5.04,2.62-5.04,5.48,1.79,5.48,5.04,5.48,5.04-2.62,5.04-5.48Z"/>
          <path class="cls-1" d="M278.71,151.57l-1.22-11.49-3.57,11.49h-3.13l-3.57-11.49-1.22,11.49h-3.77l2.08-17.12h4.6l3.45,10.96,3.45-10.96h4.6l2.08,17.12h-3.77Z"/>
          <path class="cls-1" d="M285.44,151.57v-17.12h10.96v3.37h-7.19v3.13h6.7v3.37h-6.7v3.86h7.58v3.37h-11.35Z"/>
          <path class="cls-1" d="M306.24,147.15s1.08,1.59,3.94,1.59c1.47,0,2.18-.42,2.18-1.61,0-.51-.12-1.35-2.59-2.47l-1.17-.54c-1.69-.78-3.94-2.05-3.94-5.18,0-3.47,2.76-4.77,5.6-4.77,3.55,0,5.65,2.01,5.65,2.01l-1.76,2.67s-1.64-1.57-3.82-1.57c-1.34,0-1.81.61-1.81,1.44,0,.61.24,1.32,1.91,2.1l1.2.56c2.25,1.05,4.62,2.25,4.62,5.53,0,3.59-2.86,5.06-6.11,5.06-3.99,0-5.99-2.23-5.99-2.23l2.1-2.59Z"/>
          <path class="cls-1" d="M327.13,151.96c-6.04,0-8.93-4.25-8.93-8.9s2.89-8.9,8.93-8.9,8.93,4.25,8.93,8.9-2.89,8.9-8.93,8.9ZM332.16,143.06c0-2.86-1.78-5.48-5.04-5.48s-5.04,2.62-5.04,5.48,1.79,5.48,5.04,5.48,5.04-2.62,5.04-5.48Z"/>
          <path class="cls-1" d="M338.94,151.57v-17.12h3.77v13.74h7.09v3.37h-10.86Z"/>
          <path class="cls-1" d="M361.51,134.45h3.77v10.47c0,4.5-2.27,7.04-6.87,7.04s-6.87-2.54-6.87-7.04v-10.47h3.77v10.76c0,2.08.9,3.33,3.11,3.33s3.11-1.25,3.11-3.33v-10.76Z"/>
          <path class="cls-1" d="M372.75,151.57v-13.74h-5.43v-3.37h14.62v3.37h-5.43v13.74h-3.77Z"/>
          <path class="cls-1" d="M384.17,151.57v-17.12h3.77v17.12h-3.77Z"/>
          <path class="cls-1" d="M399.75,151.96c-6.04,0-8.93-4.25-8.93-8.9s2.89-8.9,8.93-8.9,8.93,4.25,8.93,8.9-2.89,8.9-8.93,8.9ZM404.79,143.06c0-2.86-1.78-5.48-5.04-5.48s-5.04,2.62-5.04,5.48,1.79,5.48,5.04,5.48,5.04-2.62,5.04-5.48Z"/>
          <path class="cls-1" d="M422.02,151.57l-6.82-10.81v10.81h-3.64v-17.12h3.91l6.82,11.2v-11.2h3.64v17.12h-3.91Z"/>
          <path class="cls-1" d="M430.73,147.15s1.08,1.59,3.94,1.59c1.47,0,2.18-.42,2.18-1.61,0-.51-.12-1.35-2.59-2.47l-1.17-.54c-1.69-.78-3.94-2.05-3.94-5.18,0-3.47,2.76-4.77,5.6-4.77,3.55,0,5.65,2.01,5.65,2.01l-1.76,2.67s-1.64-1.57-3.82-1.57c-1.34,0-1.81.61-1.81,1.44,0,.61.24,1.32,1.91,2.1l1.2.56c2.25,1.05,4.62,2.25,4.62,5.53,0,3.59-2.86,5.06-6.11,5.06-3.99,0-5.99-2.23-5.99-2.23l2.1-2.59Z"/>
        </g>
      </g>
    </g>
  </g>
</svg>